# xmcd
#
# Track frame offsets:
#	150
#	11607
#	25530
#	38792
#	51650
#	64525
#	77277
#	87797
#	100842
#	111007
#	124037
#	137340
#	149942
#	163630
#
# Disc length: 2393 seconds
#
# Revision: 1
# Processed by: cddbd v1.4PL0 Copyright (c) Steve Scherf et al.
# Submitted via: dBpowerAMP V4.0
#
DISCID=ae09570e
DTITLE=Howlin' Wolf - Howlin' Wolf  Brown Album 
DYEAR=1900
DGENRE=Blues
TTITLE0=Sitting on Top of The World
TTITLE1=Smokestack Lightnin'
TTITLE2=No Place to Go
TTITLE3=Moanin' For my Baby
TTITLE4=I Asked For Water (She Gave me Gasoline)
TTITLE5=Killing Floor
TTITLE6=Do The Do
TTITLE7=Baby How Long
TTITLE8=All Night Boogie
TTITLE9=Evil
TTITLE10=I'm Leavin' You
TTITLE11=Forty Four
TTITLE12=Three Hundred Pounds of Joy
TTITLE13=I Ain't Superstitious
EXTD=
EXTT0=
EXTT1=
EXTT2=
EXTT3=
EXTT4=
EXTT5=
EXTT6=
EXTT7=
EXTT8=
EXTT9=
EXTT10=
EXTT11=
EXTT12=
EXTT13=
PLAYORDER=
